<svg width="2394" height="2500" viewBox="0 0 2394 2500" fill="none" xmlns="http://www.w3.org/2000/svg">
<rect width="2394" height="2499.85" fill="#222222"/>
<path d="M2294 1250.15C2294 1104.81 2111.99 967.066 1832.93 881.649C1897.33 597.225 1868.71 370.938 1742.59 298.491C1713.52 281.497 1679.54 273.447 1642.42 273.447V373.174C1662.99 373.174 1679.54 377.199 1693.4 384.802C1754.22 419.684 1780.61 552.505 1760.03 723.338C1755.12 765.375 1747.07 809.649 1737.23 854.817C1649.57 833.351 1553.87 816.804 1453.25 806.071C1392.88 723.338 1330.27 648.207 1267.21 582.468C1413 446.964 1549.85 372.727 1642.87 372.727V273C1519.88 273 1358.89 360.653 1196.11 512.703C1033.32 361.547 872.327 274.789 749.345 274.789V374.516C841.917 374.516 979.21 448.305 1125 582.915C1062.39 648.654 999.782 723.338 940.303 806.071C839.234 816.804 743.532 833.351 655.879 855.264C645.593 810.543 637.991 767.164 632.624 725.574C611.605 554.741 637.543 421.92 697.916 386.591C711.333 378.541 728.774 374.963 749.345 374.963V275.236C711.78 275.236 677.792 283.286 648.276 300.28C522.611 372.727 494.437 598.567 559.282 882.097C281.119 967.96 100 1105.25 100 1250.15C100 1395.49 282.013 1533.23 561.071 1618.65C496.673 1903.07 525.294 2129.36 651.407 2201.81C680.475 2218.8 714.463 2226.85 752.029 2226.85C875.011 2226.85 1036.01 2139.2 1198.79 1987.15C1361.57 2138.3 1522.57 2225.06 1645.55 2225.06C1683.11 2225.06 1717.1 2217.01 1746.62 2200.02C1872.28 2127.57 1900.46 1901.73 1835.61 1618.2C2112.88 1532.78 2294 1395.04 2294 1250.15ZM1711.74 951.861C1695.19 1009.55 1674.62 1069.03 1651.36 1128.51C1633.03 1092.73 1613.8 1056.95 1592.78 1021.18C1572.21 985.402 1550.29 950.519 1528.38 916.532C1591.88 925.923 1653.15 937.55 1711.74 951.861ZM1506.91 1428.14C1472.03 1488.51 1436.26 1545.75 1399.14 1598.97C1332.5 1604.78 1264.98 1607.91 1197 1607.91C1129.47 1607.91 1061.94 1604.78 995.757 1599.42C958.639 1546.2 922.415 1489.4 887.532 1429.48C853.545 1370.89 822.687 1311.42 794.513 1251.49C822.24 1191.56 853.545 1131.64 887.085 1073.05C921.968 1012.68 957.744 955.439 994.862 902.221C1061.5 896.407 1129.02 893.277 1197 893.277C1264.53 893.277 1332.06 896.407 1398.24 901.774C1435.36 954.991 1471.59 1011.79 1506.47 1071.71C1540.46 1130.3 1571.31 1189.78 1599.49 1249.7C1571.31 1309.63 1540.46 1369.55 1506.91 1428.14ZM1651.36 1370C1675.51 1429.93 1696.08 1489.85 1713.08 1547.99C1654.49 1562.3 1592.78 1574.37 1528.83 1583.77C1550.74 1549.33 1572.65 1514 1593.23 1477.78C1613.8 1442 1633.03 1405.78 1651.36 1370ZM1197.89 1847.17C1156.3 1804.24 1114.71 1756.39 1073.57 1704.06C1113.82 1705.85 1154.96 1707.19 1196.55 1707.19C1238.59 1707.19 1280.18 1706.3 1320.88 1704.06C1280.63 1756.39 1239.04 1804.24 1197.89 1847.17ZM865.172 1583.77C801.669 1574.37 740.401 1562.75 681.817 1548.44C698.364 1490.75 718.935 1431.27 742.19 1371.79C760.526 1407.57 779.755 1443.34 800.774 1479.12C821.793 1514.9 843.259 1549.78 865.172 1583.77ZM1195.66 653.126C1237.25 696.058 1278.84 743.909 1319.98 796.233C1279.73 794.444 1238.59 793.102 1197 793.102C1154.96 793.102 1113.37 793.997 1072.68 796.233C1112.93 743.909 1154.52 696.058 1195.66 653.126ZM864.725 916.532C842.812 950.967 820.899 986.296 800.327 1022.52C779.755 1058.3 760.526 1094.07 742.19 1129.85C718.041 1069.92 697.469 1010 680.475 951.861C739.06 937.998 800.774 925.923 864.725 916.532ZM460.002 1476.44C301.691 1408.91 199.28 1320.36 199.28 1250.15C199.28 1179.94 301.691 1090.94 460.002 1023.86C498.462 1007.31 540.499 992.557 583.879 978.693C609.369 1066.35 642.91 1157.58 684.5 1251.04C643.357 1344.06 610.264 1434.85 585.22 1522.05C540.947 1508.19 498.909 1492.98 460.002 1476.44ZM700.6 2115.49C639.78 2080.61 613.394 1947.79 633.966 1776.96C638.885 1734.92 646.935 1690.65 656.773 1645.48C744.426 1666.95 840.129 1683.49 940.75 1694.23C1001.12 1776.96 1063.73 1852.09 1126.79 1917.83C980.999 2053.33 844.153 2127.57 751.134 2127.57C731.01 2127.12 714.016 2123.1 700.6 2115.49ZM1761.38 1774.72C1782.39 1945.56 1756.46 2078.38 1696.08 2113.71C1682.67 2121.76 1665.23 2125.33 1644.65 2125.33C1552.08 2125.33 1414.79 2051.54 1269 1916.93C1331.61 1851.2 1394.22 1776.51 1453.7 1693.78C1554.77 1683.05 1650.47 1666.5 1738.12 1644.59C1748.41 1689.75 1756.46 1733.13 1761.38 1774.72ZM1933.55 1476.44C1895.09 1492.98 1853.05 1507.74 1809.67 1521.6C1784.18 1433.95 1750.64 1342.72 1709.05 1249.25C1750.2 1156.23 1783.29 1065.45 1808.33 978.246C1852.61 992.11 1894.64 1007.31 1934 1023.86C2092.31 1091.39 2194.72 1179.94 2194.72 1250.15C2194.27 1320.36 2091.86 1409.35 1933.55 1476.44Z" fill="#61DAFB"/>
<path d="M1196.55 1454.52C1309.43 1454.52 1400.93 1363.02 1400.93 1250.15C1400.93 1137.28 1309.43 1045.77 1196.55 1045.77C1083.68 1045.77 992.18 1137.28 992.18 1250.15C992.18 1363.02 1083.68 1454.52 1196.55 1454.52Z" fill="#61DAFB"/>
</svg>
